{
  "source": "C:\\Users\\Peter\\Desktop\\stuff\\MIUN\\quantitative_research\\video_compression\\videos\\UVG\\HoneyBee_1920x1080_120fps_420_8bit_YUV.y4m",
  "output": "C:\\Users\\Peter\\Desktop\\stuff\\MIUN\\quantitative_research\\video_compression\\compressed_videos\\UVG\\vp9\\1.5\\HoneyBee_1920x1080_120fps_420_8bit_YUV_vp9.webm",
  "codec": "vp9",
  "ok": "[yuv4mpegpipe @ 000002d33d295340] Stream #0: not enough frames to estimate rate; consider increasing probesize\nInput #0, yuv4mpegpipe, from 'C:\\Users\\Peter\\Desktop\\stuff\\MIUN\\quantitative_research\\video_compression\\videos\\UVG\\HoneyBee_1920x1080_120fps_420_8bit_YUV.y4m':\n  Duration: 00:00:05.00, start: 0.000000, bitrate: 2985989 kb/s\n  Stream #0:0: Video: rawvideo (I420 / 0x30323449), yuv420p(progressive), 1920x1080, 120 fps, 120 tbr, 120 tbn\n[out#0/webm @ 000002d33d299bc0] Codec AVOption b:a (set bitrate (in bits/s)) has not been used for any stream. The most likely reason is either wrong type (e.g. a video option with no video streams) or that it is a private option of some decoder which was not actually used for any stream.\nStream mapping:\n  Stream #0:0 -> #0:0 (rawvideo (native) -> vp9 (libvpx-vp9))\nPress [q] to stop, [?] for help\n[libvpx-vp9 @ 000002d33d29cfc0] v1.15.2-100-g40561f514\nOutput #0, webm, to 'C:\\Users\\Peter\\Desktop\\stuff\\MIUN\\quantitative_research\\video_compression\\compressed_videos\\UVG\\vp9\\1.5\\HoneyBee_1920x1080_120fps_420_8bit_YUV_vp9.webm':\n  Metadata:\n    encoder         : Lavf62.3.100\n  Stream #0:0: Video: vp9, yuv420p(tv, progressive), 1920x1080, q=2-31, 1500 kb/s, 120 fps, 1k tbn\n    Metadata:\n      encoder         : Lavc62.11.100 libvpx-vp9\n    Side data:\n      cpb: bitrate max/min/avg: 0/0/0 buffer size: 1500000 vbv_delay: N/A\nframe=    4 fps=0.0 q=57.0 size=       0KiB time=00:00:00.03 bitrate= 115.4kbits/s speed=0.0648x elapsed=0:00:00.51    \nframe=   12 fps= 11 q=45.0 size=       0KiB time=00:00:00.10 bitrate=  38.5kbits/s speed=0.0942x elapsed=0:00:01.06    \nframe=   18 fps= 11 q=37.0 size=       0KiB time=00:00:00.15 bitrate=  25.7kbits/s speed=0.0944x elapsed=0:00:01.58    \nframe=   24 fps= 11 q=35.0 size=       0KiB time=00:00:00.20 bitrate=  19.2kbits/s speed=0.094x elapsed=0:00:02.12    \nframe=   30 fps= 11 q=37.0 size=       0KiB time=00:00:00.25 bitrate=  15.4kbits/s speed=0.0945x elapsed=0:00:02.64    \nframe=   36 fps= 11 q=32.0 size=       0KiB time=00:00:00.30 bitrate=  12.8kbits/s speed=0.0941x elapsed=0:00:03.18    \nframe=   42 fps= 11 q=31.0 size=       0KiB time=00:00:00.35 bitrate=  11.0kbits/s speed=0.0942x elapsed=0:00:03.71    \nframe=   47 fps= 11 q=32.0 size=       0KiB time=00:00:00.39 bitrate=   9.8kbits/s speed=0.0924x elapsed=0:00:04.24    \nframe=   54 fps= 11 q=29.0 size=       0KiB time=00:00:00.45 bitrate=   8.6kbits/s speed=0.0945x elapsed=0:00:04.76    \nframe=   60 fps= 11 q=28.0 size=       0KiB time=00:00:00.50 bitrate=   7.7kbits/s speed=0.0948x elapsed=0:00:05.27    \nframe=   66 fps= 11 q=26.0 size=       0KiB time=00:00:00.55 bitrate=   7.0kbits/s speed=0.0948x elapsed=0:00:05.80    \nframe=   73 fps= 12 q=28.0 size=       0KiB time=00:00:00.60 bitrate=   6.3kbits/s speed=0.0961x elapsed=0:00:06.32    \nframe=   78 fps= 11 q=26.0 size=       0KiB time=00:00:00.65 bitrate=   5.9kbits/s speed=0.0946x elapsed=0:00:06.87    \nframe=   85 fps= 11 q=27.0 size=       0KiB time=00:00:00.70 bitrate=   5.4kbits/s speed=0.0957x elapsed=0:00:07.40    \nframe=   90 fps= 11 q=26.0 size=       0KiB time=00:00:00.75 bitrate=   5.1kbits/s speed=0.0947x elapsed=0:00:07.92    \nframe=   97 fps= 11 q=25.0 size=       0KiB time=00:00:00.80 bitrate=   4.8kbits/s speed=0.0953x elapsed=0:00:08.48    \nframe=  104 fps= 12 q=24.0 size=       0KiB time=00:00:00.86 bitrate=   4.4kbits/s speed=0.0962x elapsed=0:00:09.00    \nframe=  109 fps= 11 q=27.0 size=       0KiB time=00:00:00.90 bitrate=   4.2kbits/s speed=0.0954x elapsed=0:00:09.52    \nframe=  116 fps= 12 q=26.0 size=       0KiB time=00:00:00.96 bitrate=   4.0kbits/s speed=0.0962x elapsed=0:00:10.04    \nframe=  121 fps= 11 q=24.0 size=       0KiB time=00:00:01.00 bitrate=   3.8kbits/s speed=0.0953x elapsed=0:00:10.58    \nframe=  128 fps= 12 q=25.0 size=       0KiB time=00:00:01.06 bitrate=   3.6kbits/s speed=0.0961x elapsed=0:00:11.09    \nframe=  133 fps= 11 q=24.0 size=     256KiB time=00:00:01.10 bitrate=1892.2kbits/s speed=0.095x elapsed=0:00:11.67    \nframe=  139 fps= 11 q=25.0 size=     256KiB time=00:00:01.15 bitrate=1810.5kbits/s speed=0.095x elapsed=0:00:12.19    \nframe=  143 fps= 11 q=24.0 size=     256KiB time=00:00:01.19 bitrate=1759.8kbits/s speed=0.0937x elapsed=0:00:12.71    \nframe=  148 fps= 11 q=23.0 size=     256KiB time=00:00:01.23 bitrate=1700.4kbits/s speed=0.0932x elapsed=0:00:13.23    \nframe=  154 fps= 11 q=22.0 size=     256KiB time=00:00:01.28 bitrate=1634.1kbits/s speed=0.0933x elapsed=0:00:13.75    \nframe=  158 fps= 11 q=24.0 size=     256KiB time=00:00:01.31 bitrate=1592.8kbits/s speed=0.0922x elapsed=0:00:14.28    \nframe=  160 fps= 11 q=24.0 size=     256KiB time=00:00:01.33 bitrate=1572.9kbits/s speed=0.0901x elapsed=0:00:14.79    \nframe=  164 fps= 11 q=22.0 size=     256KiB time=00:00:01.36 bitrate=1534.5kbits/s speed=0.0892x elapsed=0:00:15.31    \nframe=  168 fps= 11 q=23.0 size=     256KiB time=00:00:01.40 bitrate=1498.0kbits/s speed=0.0884x elapsed=0:00:15.83    \nframe=  172 fps= 11 q=22.0 size=     256KiB time=00:00:01.43 bitrate=1463.1kbits/s speed=0.0877x elapsed=0:00:16.35    \nframe=  173 fps= 10 q=23.0 size=     256KiB time=00:00:01.44 bitrate=1454.7kbits/s speed=0.0855x elapsed=0:00:16.87    \nframe=  177 fps= 10 q=22.0 size=     256KiB time=00:00:01.47 bitrate=1421.8kbits/s speed=0.0849x elapsed=0:00:17.38    \nframe=  182 fps= 10 q=24.0 size=     256KiB time=00:00:01.51 bitrate=1382.7kbits/s speed=0.0847x elapsed=0:00:17.89    \nframe=  186 fps= 10 q=23.0 size=     256KiB time=00:00:01.55 bitrate=1353.0kbits/s speed=0.0842x elapsed=0:00:18.41    \nframe=  188 fps=9.9 q=23.0 size=     256KiB time=00:00:01.56 bitrate=1338.6kbits/s speed=0.0828x elapsed=0:00:18.93    \nframe=  191 fps=9.8 q=24.0 size=     256KiB time=00:00:01.59 bitrate=1317.6kbits/s speed=0.0818x elapsed=0:00:19.44    \nframe=  196 fps=9.8 q=25.0 size=     256KiB time=00:00:01.63 bitrate=1284.0kbits/s speed=0.0818x elapsed=0:00:19.96    \nframe=  201 fps=9.8 q=23.0 size=     256KiB time=00:00:01.67 bitrate=1252.0kbits/s speed=0.0818x elapsed=0:00:20.48    \nframe=  203 fps=9.7 q=23.0 size=     256KiB time=00:00:01.69 bitrate=1239.7kbits/s speed=0.0806x elapsed=0:00:20.99    \nframe=  207 fps=9.6 q=21.0 size=     256KiB time=00:00:01.72 bitrate=1215.7kbits/s speed=0.0802x elapsed=0:00:21.50    \nframe=  211 fps=9.6 q=23.0 size=     256KiB time=00:00:01.75 bitrate=1192.7kbits/s speed=0.0799x elapsed=0:00:22.01    \nframe=  215 fps=9.5 q=23.0 size=     256KiB time=00:00:01.79 bitrate=1170.5kbits/s speed=0.0795x elapsed=0:00:22.54    \nframe=  218 fps=9.5 q=23.0 size=     256KiB time=00:00:01.81 bitrate=1154.4kbits/s speed=0.0788x elapsed=0:00:23.05    \nframe=  221 fps=9.4 q=22.0 size=     256KiB time=00:00:01.84 bitrate=1138.7kbits/s speed=0.0781x elapsed=0:00:23.57    \nframe=  226 fps=9.4 q=23.0 size=     256KiB time=00:00:01.88 bitrate=1113.5kbits/s speed=0.0782x elapsed=0:00:24.08    \nframe=  230 fps=9.3 q=24.0 size=     256KiB time=00:00:01.91 bitrate=1094.2kbits/s speed=0.0779x elapsed=0:00:24.60    \nframe=  233 fps=9.3 q=23.0 size=     256KiB time=00:00:01.94 bitrate=1080.1kbits/s speed=0.0773x elapsed=0:00:25.12    \nframe=  236 fps=9.2 q=22.0 size=     256KiB time=00:00:01.96 bitrate=1066.3kbits/s speed=0.0767x elapsed=0:00:25.63    \nframe=  241 fps=9.2 q=23.0 size=     256KiB time=00:00:02.00 bitrate=1044.2kbits/s speed=0.0768x elapsed=0:00:26.15    \nframe=  244 fps=9.2 q=25.0 size=     256KiB time=00:00:02.03 bitrate=1031.4kbits/s speed=0.0763x elapsed=0:00:26.66    \nframe=  248 fps=9.1 q=23.0 size=     256KiB time=00:00:02.06 bitrate=1014.8kbits/s speed=0.076x elapsed=0:00:27.17    \nframe=  253 fps=9.1 q=24.0 size=     256KiB time=00:00:02.10 bitrate= 994.7kbits/s speed=0.0761x elapsed=0:00:27.69    \nframe=  256 fps=9.1 q=22.0 size=     256KiB time=00:00:02.13 bitrate= 983.0kbits/s speed=0.0756x elapsed=0:00:28.21    \nframe=  261 fps=9.1 q=25.0 size=     768KiB time=00:00:02.17 bitrate=2892.6kbits/s speed=0.0757x elapsed=0:00:28.73    \nframe=  266 fps=9.1 q=25.0 size=     768KiB time=00:00:02.21 bitrate=2838.3kbits/s speed=0.0758x elapsed=0:00:29.24    \nframe=  271 fps=9.1 q=25.0 size=     768KiB time=00:00:02.25 bitrate=2785.9kbits/s speed=0.0759x elapsed=0:00:29.75    \nframe=  274 fps=9.1 q=24.0 size=     768KiB time=00:00:02.28 bitrate=2755.4kbits/s speed=0.0754x elapsed=0:00:30.27    \nframe=  279 fps=9.1 q=25.0 size=     768KiB time=00:00:02.32 bitrate=2706.0kbits/s speed=0.0755x elapsed=0:00:30.78    \nframe=  284 fps=9.1 q=25.0 size=     768KiB time=00:00:02.36 bitrate=2658.4kbits/s speed=0.0756x elapsed=0:00:31.30    \nframe=  286 fps=9.0 q=25.0 size=     768KiB time=00:00:02.38 bitrate=2639.8kbits/s speed=0.0749x elapsed=0:00:31.82    \nframe=  290 fps=9.0 q=25.0 size=     768KiB time=00:00:02.41 bitrate=2603.4kbits/s speed=0.0747x elapsed=0:00:32.33    \nframe=  295 fps=9.0 q=24.0 size=     768KiB time=00:00:02.45 bitrate=2559.2kbits/s speed=0.0748x elapsed=0:00:32.85    \nframe=  299 fps=9.0 q=25.0 size=     768KiB time=00:00:02.49 bitrate=2525.0kbits/s speed=0.0747x elapsed=0:00:33.36    \nframe=  301 fps=8.9 q=25.0 size=     768KiB time=00:00:02.50 bitrate=2508.2kbits/s speed=0.074x elapsed=0:00:33.88    \nframe=  305 fps=8.9 q=24.0 size=     768KiB time=00:00:02.54 bitrate=2475.3kbits/s speed=0.0739x elapsed=0:00:34.39    \nframe=  309 fps=8.9 q=24.0 size=     768KiB time=00:00:02.57 bitrate=2443.3kbits/s speed=0.0738x elapsed=0:00:34.91    \nframe=  313 fps=8.8 q=25.0 size=     768KiB time=00:00:02.60 bitrate=2412.1kbits/s speed=0.0736x elapsed=0:00:35.43    \nframe=  316 fps=8.8 q=24.0 size=     768KiB time=00:00:02.63 bitrate=2389.2kbits/s speed=0.0733x elapsed=0:00:35.94    \nframe=  319 fps=8.8 q=24.0 size=     768KiB time=00:00:02.65 bitrate=2366.7kbits/s speed=0.0729x elapsed=0:00:36.45    \nframe=  323 fps=8.7 q=24.0 size=     768KiB time=00:00:02.69 bitrate=2337.4kbits/s speed=0.0728x elapsed=0:00:36.97    \nframe=  327 fps=8.7 q=24.0 size=     768KiB time=00:00:02.72 bitrate=2308.8kbits/s speed=0.0727x elapsed=0:00:37.50    \nframe=  331 fps=8.7 q=25.0 size=     768KiB time=00:00:02.75 bitrate=2280.9kbits/s speed=0.0726x elapsed=0:00:38.00    \nframe=  334 fps=8.7 q=24.0 size=     768KiB time=00:00:02.78 bitrate=2260.4kbits/s speed=0.0722x elapsed=0:00:38.52    \nframe=  338 fps=8.7 q=23.0 size=     768KiB time=00:00:02.81 bitrate=2233.7kbits/s speed=0.0721x elapsed=0:00:39.04    \nframe=  342 fps=8.6 q=23.0 size=     768KiB time=00:00:02.85 bitrate=2207.5kbits/s speed=0.072x elapsed=0:00:39.55    \nframe=  345 fps=8.6 q=24.0 size=     768KiB time=00:00:02.87 bitrate=2188.3kbits/s speed=0.0717x elapsed=0:00:40.07    \nframe=  346 fps=8.5 q=23.0 size=     768KiB time=00:00:02.88 bitrate=2182.0kbits/s speed=0.071x elapsed=0:00:40.59    \nframe=  351 fps=8.5 q=24.0 size=     768KiB time=00:00:02.92 bitrate=2150.9kbits/s speed=0.0712x elapsed=0:00:41.10    \nframe=  355 fps=8.5 q=24.0 size=     768KiB time=00:00:02.95 bitrate=2126.7kbits/s speed=0.0711x elapsed=0:00:41.62    \nframe=  359 fps=8.5 q=24.0 size=     768KiB time=00:00:02.99 bitrate=2103.0kbits/s speed=0.071x elapsed=0:00:42.12    \nframe=  361 fps=8.5 q=24.0 size=     768KiB time=00:00:03.00 bitrate=2091.3kbits/s speed=0.0705x elapsed=0:00:42.65    \nframe=  365 fps=8.5 q=25.0 size=     768KiB time=00:00:03.04 bitrate=2068.4kbits/s speed=0.0705x elapsed=0:00:43.17    \nframe=  369 fps=8.4 q=25.0 size=     768KiB time=00:00:03.07 bitrate=2046.0kbits/s speed=0.0704x elapsed=0:00:43.68    \nframe=  372 fps=8.4 q=24.0 size=     768KiB time=00:00:03.10 bitrate=2029.5kbits/s speed=0.0701x elapsed=0:00:44.19    \nframe=  376 fps=8.4 q=24.0 size=     768KiB time=00:00:03.13 bitrate=2007.9kbits/s speed=0.0701x elapsed=0:00:44.70    \nframe=  380 fps=8.4 q=24.0 size=     768KiB time=00:00:03.16 bitrate=1986.8kbits/s speed=0.07x elapsed=0:00:45.22    \nframe=  384 fps=8.4 q=25.0 size=     768KiB time=00:00:03.20 bitrate=1966.1kbits/s speed=0.07x elapsed=0:00:45.73    \nframe=  388 fps=8.4 q=26.0 size=    1280KiB time=00:00:03.23 bitrate=3243.0kbits/s speed=0.0699x elapsed=0:00:46.25    \nframe=  394 fps=8.4 q=25.0 size=    1280KiB time=00:00:03.28 bitrate=3193.6kbits/s speed=0.0702x elapsed=0:00:46.78    \nframe=  399 fps=8.4 q=25.0 size=    1280KiB time=00:00:03.32 bitrate=3153.6kbits/s speed=0.0703x elapsed=0:00:47.29    \nframe=  401 fps=8.4 q=25.0 size=    1280KiB time=00:00:03.34 bitrate=3137.9kbits/s speed=0.0699x elapsed=0:00:47.82    \nframe=  406 fps=8.4 q=25.0 size=    1280KiB time=00:00:03.38 bitrate=3099.2kbits/s speed=0.07x elapsed=0:00:48.33    \nframe=  411 fps=8.4 q=25.0 size=    1280KiB time=00:00:03.42 bitrate=3061.5kbits/s speed=0.0701x elapsed=0:00:48.85    \nframe=  414 fps=8.4 q=24.0 size=    1280KiB time=00:00:03.45 bitrate=3039.4kbits/s speed=0.0699x elapsed=0:00:49.37    \nframe=  417 fps=8.4 q=24.0 size=    1280KiB time=00:00:03.47 bitrate=3017.5kbits/s speed=0.0697x elapsed=0:00:49.87    \nframe=  421 fps=8.4 q=25.0 size=    1280KiB time=00:00:03.50 bitrate=2988.8kbits/s speed=0.0696x elapsed=0:00:50.40    \nframe=  426 fps=8.4 q=25.0 size=    1280KiB time=00:00:03.55 bitrate=2953.7kbits/s speed=0.0697x elapsed=0:00:50.91    \nframe=  429 fps=8.3 q=25.0 size=    1280KiB time=00:00:03.57 bitrate=2933.1kbits/s speed=0.0695x elapsed=0:00:51.43    \nframe=  432 fps=8.3 q=23.0 size=    1280KiB time=00:00:03.60 bitrate=2912.7kbits/s speed=0.0693x elapsed=0:00:51.94    \nframe=  437 fps=8.3 q=25.0 size=    1280KiB time=00:00:03.64 bitrate=2879.4kbits/s speed=0.0694x elapsed=0:00:52.45    \nframe=  442 fps=8.3 q=25.0 size=    1280KiB time=00:00:03.68 bitrate=2846.8kbits/s speed=0.0695x elapsed=0:00:52.97    \nframe=  444 fps=8.3 q=25.0 size=    1280KiB time=00:00:03.70 bitrate=2834.0kbits/s speed=0.0692x elapsed=0:00:53.49    \nframe=  449 fps=8.3 q=23.0 size=    1280KiB time=00:00:03.74 bitrate=2802.4kbits/s speed=0.0693x elapsed=0:00:54.01    \nframe=  453 fps=8.3 q=24.0 size=    1280KiB time=00:00:03.77 bitrate=2777.7kbits/s speed=0.0692x elapsed=0:00:54.52    \nframe=  458 fps=8.3 q=25.0 size=    1280KiB time=00:00:03.81 bitrate=2747.4kbits/s speed=0.0693x elapsed=0:00:55.03    \nframe=  459 fps=8.3 q=25.0 size=    1280KiB time=00:00:03.82 bitrate=2741.4kbits/s speed=0.0688x elapsed=0:00:55.55    \nframe=  465 fps=8.3 q=25.0 size=    1280KiB time=00:00:03.87 bitrate=2706.0kbits/s speed=0.0691x elapsed=0:00:56.07    \nframe=  471 fps=8.3 q=26.0 size=    1280KiB time=00:00:03.92 bitrate=2671.5kbits/s speed=0.0694x elapsed=0:00:56.59    \nframe=  474 fps=8.3 q=27.0 size=    1280KiB time=00:00:03.95 bitrate=2654.6kbits/s speed=0.0692x elapsed=0:00:57.10    \nframe=  479 fps=8.3 q=24.0 size=    1280KiB time=00:00:03.99 bitrate=2626.9kbits/s speed=0.0693x elapsed=0:00:57.61    \nframe=  484 fps=8.3 q=24.0 size=    1280KiB time=00:00:04.03 bitrate=2599.8kbits/s speed=0.0694x elapsed=0:00:58.13    \nframe=  488 fps=8.3 q=24.0 size=    1280KiB time=00:00:04.06 bitrate=2578.5kbits/s speed=0.0693x elapsed=0:00:58.64    \nframe=  490 fps=8.3 q=13.0 size=    1280KiB time=00:00:04.08 bitrate=2567.9kbits/s speed=0.069x elapsed=0:00:59.15    \nframe=  496 fps=8.3 q=26.0 size=    1280KiB time=00:00:04.13 bitrate=2536.9kbits/s speed=0.0693x elapsed=0:00:59.68    \nframe=  500 fps=8.3 q=27.0 size=    1280KiB time=00:00:04.16 bitrate=2516.6kbits/s speed=0.0692x elapsed=0:01:00.20    \nframe=  505 fps=8.3 q=25.0 size=    1280KiB time=00:00:04.20 bitrate=2491.7kbits/s speed=0.0693x elapsed=0:01:00.71    \nframe=  510 fps=8.3 q=26.0 size=    1280KiB time=00:00:04.25 bitrate=2467.2kbits/s speed=0.0694x elapsed=0:01:01.23    \nframe=  513 fps=8.3 q=13.0 size=    1280KiB time=00:00:04.27 bitrate=2452.8kbits/s speed=0.0692x elapsed=0:01:01.74    \nframe=  519 fps=8.3 q=26.0 size=    1792KiB time=00:00:04.32 bitrate=3394.2kbits/s speed=0.0695x elapsed=0:01:02.26    \nframe=  525 fps=8.4 q=27.0 size=    1792KiB time=00:00:04.37 bitrate=3355.4kbits/s speed=0.0697x elapsed=0:01:02.77    \nframe=  530 fps=8.4 q=26.0 size=    1792KiB time=00:00:04.41 bitrate=3323.8kbits/s speed=0.0698x elapsed=0:01:03.29    \nframe=  537 fps=8.4 q=28.0 size=    1792KiB time=00:00:04.47 bitrate=3280.5kbits/s speed=0.0701x elapsed=0:01:03.82    \nframe=  542 fps=8.4 q=27.0 size=    1792KiB time=00:00:04.51 bitrate=3250.2kbits/s speed=0.0702x elapsed=0:01:04.33    \nframe=  550 fps=8.5 q=27.0 size=    1792KiB time=00:00:04.58 bitrate=3202.9kbits/s speed=0.0707x elapsed=0:01:04.85    \nframe=  557 fps=8.5 q=28.0 size=    1792KiB time=00:00:04.64 bitrate=3162.7kbits/s speed=0.071x elapsed=0:01:05.36    \nframe=  563 fps=8.5 q=28.0 size=    1792KiB time=00:00:04.69 bitrate=3129.0kbits/s speed=0.0712x elapsed=0:01:05.88    \nframe=  571 fps=8.6 q=27.0 size=    1792KiB time=00:00:04.75 bitrate=3085.1kbits/s speed=0.0717x elapsed=0:01:06.39    \nframe=  576 fps=8.6 q=25.0 size=    1792KiB time=00:00:04.80 bitrate=3058.3kbits/s speed=0.0717x elapsed=0:01:06.91    \nframe=  576 fps=8.5 q=25.0 size=    1792KiB time=00:00:04.80 bitrate=3058.3kbits/s speed=0.0712x elapsed=0:01:07.43    \nframe=  576 fps=8.5 q=25.0 size=    1792KiB time=00:00:04.80 bitrate=3058.3kbits/s speed=0.0706x elapsed=0:01:07.95    \nframe=  576 fps=8.4 q=25.0 size=    1792KiB time=00:00:04.80 bitrate=3058.3kbits/s speed=0.0701x elapsed=0:01:08.48    \n[out#0/webm @ 000002d33d299bc0] video:2164KiB audio:0KiB subtitle:0KiB other streams:0KiB global headers:0KiB muxing overhead: 0.219509%\nframe=  600 fps=8.7 q=25.0 Lsize=    2169KiB time=00:00:05.00 bitrate=3553.9kbits/s speed=0.0726x elapsed=0:01:08.84    \n",
  "seconds": 68.9788773059845,
  "probe_out": {}
}